inDegrees=yes
name=ik_Xsens_quaternion
DataType=double
version=3
OpenSimVersion=4.4-2022-07-23-0e9fedc
endheader
time	pelvis_tilt	pelvis_list	pelvis_rotation	pelvis_tx	pelvis_ty	pelvis_tz	hip_flexion_r	hip_adduction_r	hip_rotation_r	knee_angle_r	knee_angle_r_beta	ankle_angle_r	subtalar_angle_r	mtp_angle_r	hip_flexion_l	hip_adduction_l	hip_rotation_l	knee_angle_l	knee_angle_l_beta	ankle_angle_l	subtalar_angle_l	mtp_angle_l	lumbar_extension	lumbar_bending	lumbar_rotation	arm_flex_r	arm_add_r	arm_rot_r	elbow_flex_r	pro_sup_r	wrist_flex_r	wrist_dev_r	arm_flex_l	arm_add_l	arm_rot_l	elbow_flex_l	pro_sup_l	wrist_flex_l	wrist_dev_l
42.53333333333333	3.353076356624075e-23	1.753323816092512e-17	4.407176122696229e-24	3.624585780697586e-19	0.93	1.0503774463912e-18	5.045629395137111e-28	1.479396921036286e-17	1.458558509083448e-33	0	-1.712010144445636e-15	-2.940559188937699e-14	2.971509082713198e-13	2.841813959231908e-20	-5.64273936853622e-24	8.027024546895631e-20	-3.710563394618508e-20	1.763065448705934e-14	3.398734675463606e-15	1.271419483066013e-12	-3.911032030617912e-13	6.92231974991816e-20	7.910729004129405e-13	4.134184895958349e-13	-8.91519562804885e-14	2.312397161340751e-13	-2.132195045627866e-12	1.504381098959504e-12	1.755819289797321e-14	1.755680536363808e-14	-6.578293084807641e-16	2.652383083225581e-18	89.97209413005321	9.935785112589899	-12.57573163327703	5.931609254941967	45.00015494152278	8.993440102294019e-17	1.57893879907563e-18
42.55	2.687030125234646e-11	-5.042634563042332e-11	4.992536318373327e-11	1.413644134759897e-27	0.93	2.676438512641483e-30	5.250260893079084e-29	-5.191535895529172e-26	4.21687793491408e-26	1.388169449386923e-06	2.422812747267181e-08	8.83623644799202e-24	2.034347237306077e-23	1.842415800466851e-26	4.08589478274844e-27	-1.453569373219679e-22	-1.089783515690676e-21	1.388193593820705e-06	2.422854887253775e-08	1.071623566745785e-23	-7.19923286925146e-23	-1.25718202490863e-30	2.687030125870111e-11	-5.042634561944944e-11	4.992536318444591e-11	2.340012031664195e-24	1.955041276332745e-24	-8.626295527506586e-24	1.38819349521585e-06	1.38819372265034e-06	-7.30003038716875e-24	-3.381546581811803e-25	89.97258040117131	9.892724015143548	-12.63798879502132	5.95666538279983	45.0001546138329	-6.697626105410926e-25	5.123050001277769e-27
42.56666666666666	0	0	0	0	0.93	0	0	0	0	0	0	0	0	0	0	0	0	3.041694361206345e-38	0	0	0	0	0	0	0	0	0	0	0	0	0	0	89.96981335114118	9.847882040036726	-12.66820490317241	5.986417528183613	45.00015642677887	0	0
42.58333333333334	3.780698321090805e-27	1.222674033910128e-18	-1.073771686543828e-28	7.734272370130248e-21	0.93	8.863259888759558e-21	-7.873967331910519e-39	2.480757860933009e-28	-7.906721611909047e-29	2.556917055890157e-14	1.460660262043455e-15	1.246509589411908e-14	-2.708399814294827e-18	1.424408320758779e-18	-9.240386900543162e-16	7.941358055337335e-16	-2.493626317085901e-15	1.932204518781705e-14	2.4892130129295e-18	-1.180509603201149e-14	6.040576639843423e-18	-3.460886724815939e-20	3.759386500813072e-15	4.648883603785181e-14	2.423758984216237e-15	-1.296505699746497e-14	5.289088797316512e-15	-8.396272170792218e-15	1.932258899391874e-14	1.932248825614694e-14	-1.263820200298696e-19	2.933720091871742e-20	89.97298378537739	9.790104980190181	-12.6940357014506	5.999737648025619	45.00015609033631	-4.443609839171646e-20	8.283926714412047e-21
42.6	0	0	0	0	0.93	0	0	0	0	0	0	0	0	0	0	0	0	0	0	0	0	0	0	0	0	0	0	0	0	0	0	0	89.97332292206958	9.730670765311283	-12.71338979160712	6.014966441660484	45.00015574745053	0	0
42.61666666666667	0	0	0	0	0.93	0	0	0	0	0	0	0	0	0	0	0	0	0	0	0	0	0	0	0	0	0	0	0	5.830159226209435e-39	2.979502347364503e-40	0	0	89.97387023389653	9.687130384594264	-12.70083305549669	6.030338724534084	45.00015540249332	0	0
42.63333333333333	0	0	0	0	0.93	0	0	0	0	0	-2.189528850507527e-47	0	0	0	0	0	0	0	-2.189528850507527e-47	0	0	0	0	0	0	0	0	0	9.907394787497369e-46	0	0	0	89.97152856715921	9.662555203965816	-12.61255141487509	6.056128501601281	45.00015502175741	0	0
42.65	0	0	0	0	0.93	0	0	0	0	0	1.903917163268267e-40	0	0	0	0	0	0	0	1.903917163268267e-40	0	0	0	0	0	0	0	0	0	2.252448413257936e-40	0	0	0	89.97465123207914	9.63665398742557	-12.49030233463183	6.080849839144334	45.00015466356767	0	0
42.66666666666666	1.208941123819861e-24	-7.579095777282673e-08	2.74651993789103e-23	1.463145028851837e-09	0.93	2.429205632787545e-13	1.377739722387149e-29	-6.719934353360556e-15	0	2.077992532210366e-06	3.626781152702387e-08	-4.903347119418006e-15	1.499457363175915e-15	1.152654904448748e-12	-4.67223375275659e-15	-9.677610610677258e-41	-2.480506577456691e-22	2.077992532208481e-06	3.6267811526991e-08	-1.731962786547158e-15	-2.687329828070649e-13	2.281169755724342e-11	-2.037102345265191e-24	2.63369997738521e-22	1.298155719061737e-24	-1.423268952415745e-20	-6.735953138174387e-18	2.628898112565096e-18	2.078057847811359e-06	2.077973720747795e-06	4.276232331058368e-07	-4.752284917741944e-09	89.97492942456326	9.590575495423399	-12.38798085030919	6.108733033162349	45.00015429175172	1.1420020165594e-09	-2.227667421021606e-09
42.68333333333333	3.985170989985592e-25	6.436609805469017e-16	-5.145069968040752e-26	-1.175104278994938e-17	0.93	-5.524852965397711e-19	4.904123274028866e-34	4.812996867377785e-19	0	2.439317442108609e-15	4.257412086338058e-17	1.910986865987259e-14	-4.571915216592318e-21	-2.738081476507586e-19	2.736450721581967e-16	-2.39902001677799e-39	-1.242087712412502e-16	2.439317012510182e-15	4.257367346506695e-17	9.066734305736179e-14	-2.390512056014219e-21	-8.598748720311201e-18	1.12833167163132e-25	1.290011675541209e-17	-4.359964585813899e-26	-3.650827550556006e-21	4.063532616176767e-13	5.252631867846084e-14	2.439427639444269e-15	2.439427765802652e-15	4.585368136370764e-17	-2.119053232823316e-16	89.97288501374115	9.537961922517624	-12.30671486220046	6.147950718115892	45.0001538735971	5.239523968865479e-17	5.983719821730167e-17
